g Box001
v -0.0359061 -0.02543348 0
v 0.0320486 -0.02270109 0.002539023
v 0.0359061 -0.02543348 0
v -0.0320486 -0.02270109 0.002539023
v 0.03 -0.02125 0.005898577
v -0.03 -0.02125 0.005898577
v 0.03 -0.02125 0.015
v -0.03 -0.02125 0.015
v 0.0359061 -0.02543348 0
v 0.0320486 0.02270109 0.002539023
v 0.0359061 0.02543348 0
v 0.0320486 -0.02270109 0.002539023
v 0.03 0.02125 0.005898577
v 0.03 -0.02125 0.005898577
v 0.03 0.02125 0.015
v 0.03 -0.02125 0.015
v 0.0359061 0.02543348 0
v -0.0320486 0.02270109 0.002539023
v -0.0359061 0.02543348 0
v 0.0320486 0.02270109 0.002539023
v -0.03 0.02125 0.005898577
v 0.03 0.02125 0.005898577
v -0.03 0.02125 0.015
v 0.03 0.02125 0.015
v -0.0359061 0.02543348 0
v -0.0320486 -0.02270109 0.002539023
v -0.0359061 -0.02543348 0
v -0.0320486 0.02270109 0.002539023
v -0.03 -0.02125 0.005898577
v -0.03 0.02125 0.005898577
v -0.03 -0.02125 0.015
v -0.03 0.02125 0.015
vt 0 0
vt 1 0.3333333
vt 1 0
vt 0 0.3333333
vt 1 0.6666667
vt 0 0.6666667
vt 1 1
vt 0 1
vt 0 0
vt 1 0.3333333
vt 1 0
vt 0 0.3333333
vt 1 0.6666667
vt 0 0.6666667
vt 1 1
vt 0 1
vt 0 0
vt 1 0.3333333
vt 1 0
vt 0 0.3333333
vt 1 0.6666667
vt 0 0.6666667
vt 1 1
vt 0 1
vt 0 0
vt 1 0.3333333
vt 1 0
vt 0 0.3333333
vt 1 0.6666667
vt 0 0.6666667
vt 1 1
vt 0 1
vn 0 -0.6807103 0.7325528
vn 0 -0.7680076 0.6404408
vn 0 -0.6807103 0.7325528
vn 0 -0.7680076 0.6404408
vn 0 -0.9730371 0.2306491
vn 0 -0.9730371 0.2306491
vn 0 -1 0
vn 0 -1 0
vn 0.5497974 0 0.8352981
vn 0.6763894 0 0.7365442
vn 0.5497974 0 0.8352981
vn 0.6763894 0 0.7365442
vn 0.9546917 0 0.2975966
vn 0.9546917 0 0.2975966
vn 1 0 0
vn 1 0 0
vn 0 0.6807103 0.7325528
vn 0 0.7680076 0.6404408
vn 0 0.6807103 0.7325528
vn 0 0.7680076 0.6404408
vn 0 0.9730371 0.2306491
vn 0 0.9730371 0.2306491
vn 0 1 0
vn 0 1 0
vn -0.5497974 0 0.8352981
vn -0.6763894 0 0.7365442
vn -0.5497974 0 0.8352981
vn -0.6763894 0 0.7365442
vn -0.9546917 0 0.2975966
vn -0.9546917 0 0.2975966
vn -1 0 0
vn -1 0 0
g Box001_0
f 3/3/3 2/2/2 1/1/1
f 2/2/2 4/4/4 1/1/1
f 2/2/2 5/5/5 4/4/4
f 5/5/5 6/6/6 4/4/4
f 5/5/5 7/7/7 6/6/6
f 7/7/7 8/8/8 6/6/6
f 11/11/11 10/10/10 9/9/9
f 10/10/10 12/12/12 9/9/9
f 10/10/10 13/13/13 12/12/12
f 13/13/13 14/14/14 12/12/12
f 13/13/13 15/15/15 14/14/14
f 15/15/15 16/16/16 14/14/14
f 19/19/19 18/18/18 17/17/17
f 18/18/18 20/20/20 17/17/17
f 18/18/18 21/21/21 20/20/20
f 21/21/21 22/22/22 20/20/20
f 21/21/21 23/23/23 22/22/22
f 23/23/23 24/24/24 22/22/22
f 27/27/27 26/26/26 25/25/25
f 26/26/26 28/28/28 25/25/25
f 26/26/26 29/29/29 28/28/28
f 29/29/29 30/30/30 28/28/28
f 29/29/29 31/31/31 30/30/30
f 31/31/31 32/32/32 30/30/30
