g 
v -0.01233177 9.709627E-08 -2.170328E-08
v -0.009976547 0.007248712 -2.170328E-08
v -0.003810507 0.0117286 -2.170328E-08
v 0.003811138 0.0117286 -2.170328E-08
v 0.009977178 0.00724871 -2.170328E-08
v 0.01233239 9.38623E-08 -2.170328E-08
v 0.009977174 -0.007248521 -2.170328E-08
v 0.003811132 -0.01172841 -2.170328E-08
v -0.003810514 -0.01172841 -2.170328E-08
v -0.009976554 -0.007248513 -2.170328E-08
v -0.01226355 9.769231E-08 0.004999956
v -0.00992136 0.007208616 0.004999956
v -0.003789427 0.01166373 0.004999956
v 0.003790058 0.01166372 0.004999956
v 0.009921989 0.007208614 0.004999956
v 0.01226418 9.480587E-08 0.004999956
v 0.009921987 -0.007208424 0.004999956
v 0.003790053 -0.01166353 0.004999956
v -0.003789433 -0.01166353 0.004999956
v -0.009921364 -0.007208417 0.004999956
v -0.01206762 9.828835E-08 0.009999935
v -0.009762846 0.00709345 0.009999935
v -0.00372888 0.01147738 0.009999935
v 0.003729511 0.01147738 0.009999935
v 0.009763476 0.007093448 0.009999935
v 0.01206824 9.595172E-08 0.009999935
v 0.009763474 -0.007093256 0.009999935
v 0.003729507 -0.01147719 0.009999935
v -0.003728886 -0.01147719 0.009999935
v -0.009762851 -0.007093251 0.009999935
v -0.01174594 9.88844E-08 0.01499991
v -0.009502606 0.006904375 0.01499991
v -0.003629477 0.01117145 0.01499991
v 0.003630108 0.01117145 0.01499991
v 0.009503236 0.006904372 0.01499991
v 0.01174657 9.564211E-08 0.01499991
v 0.009503232 -0.00690418 0.01499991
v 0.003630103 -0.01117126 0.01499991
v -0.003629483 -0.01117125 0.01499991
v -0.00950261 -0.006904173 0.01499991
v -0.0113005 9.948045E-08 0.01999989
v -0.00914224 0.006642554 0.01999989
v -0.00349183 0.01074782 0.01999989
v 0.00349246 0.01074782 0.01999989
v 0.009142869 0.006642553 0.01999989
v 0.01130113 9.745814E-08 0.01999989
v 0.009142867 -0.006642357 0.01999989
v 0.003492456 -0.01074762 0.01999989
v -0.003491835 -0.01074762 0.01999989
v -0.009142244 -0.006642353 0.01999989
v -0.01073328 1.000765E-07 0.02499987
v -0.008683344 0.006309148 0.02499987
v -0.003316547 0.01020835 0.02499987
v 0.003317178 0.01020835 0.02499987
v 0.008683975 0.006309146 0.02499987
v 0.01073391 9.710499E-08 0.02499987
v 0.008683972 -0.006308951 0.02499987
v 0.003317173 -0.01020816 0.02499987
v -0.003316554 -0.01020815 0.02499987
v -0.00868335 -0.006308944 0.02499987
v -0.01004624 1.006725E-07 0.02999985
v -0.008127522 0.005905319 0.02999985
v -0.003104242 0.009554945 0.02999985
v 0.003104873 0.009554944 0.02999985
v 0.008128151 0.005905318 0.02999985
v 0.01004687 9.816373E-08 0.02999985
v 0.008128149 -0.005905121 0.02999985
v 0.003104868 -0.009554746 0.02999985
v -0.003104247 -0.009554744 0.02999985
v -0.008127526 -0.005905116 0.02999985
v -0.009241377 1.012686E-07 0.03499983
v -0.007476371 0.005432231 0.03499983
v -0.002855525 0.008789472 0.03499983
v 0.002856155 0.008789472 0.03499983
v 0.007477001 0.00543223 0.03499983
v 0.009242006 9.938873E-08 0.03499983
v 0.007476999 -0.005432031 0.03499983
v 0.002856151 -0.008789271 0.03499983
v -0.002855529 -0.008789269 0.03499983
v -0.007476375 -0.005432026 0.03499983
v -0.008179781 1.018646E-07 0.03999981
v -0.006617521 0.004808242 0.03999981
v -0.002527474 0.007779835 0.03999981
v 0.002528104 0.007779835 0.03999981
v 0.006618152 0.004808241 0.03999981
v 0.00818041 9.998898E-08 0.03999981
v 0.00661815 -0.00480804 0.03999981
v 0.0025281 -0.007779633 0.03999981
v -0.002527478 -0.007779631 0.03999981
v -0.006617525 -0.004808035 0.03999981
v -0.007129072 1.024607E-07 0.04499978
v -0.00576748 0.004190651 0.04499978
v -0.002202787 0.006780552 0.04499978
v 0.002203417 0.006780551 0.04499978
v 0.00576811 0.004190649 0.04499978
v 0.0071297 1.008252E-07 0.04499978
v 0.005768108 -0.004190447 0.04499978
v 0.002203413 -0.006780348 0.04499978
v -0.00220279 -0.006780346 0.04499978
v -0.005767483 -0.004190444 0.04499978
v -0.005966744 1.030567E-07 0.04999976
v -0.004827137 0.003507452 0.04999976
v -0.001843608 0.005675113 0.04999976
v 0.001844237 0.005675112 0.04999976
v 0.004827767 0.003507451 0.04999976
v 0.005967373 1.01629E-07 0.04999976
v 0.004827765 -0.003507247 0.04999976
v 0.001844235 -0.005674908 0.04999976
v -0.001843611 -0.005674907 0.04999976
v -0.004827139 -0.003507244 0.04999976
v -0.004694774 1.036528E-07 0.05499974
v -0.003798092 0.002759808 0.05499974
v -0.001450548 0.004465398 0.05499974
v 0.001451177 0.004465398 0.05499974
v 0.003798721 0.002759807 0.05499974
v 0.004695403 1.027793E-07 0.05499974
v 0.00379872 -0.002759601 0.05499974
v 0.001451175 -0.004465192 0.05499974
v -0.00145055 -0.004465191 0.05499974
v -0.003798094 -0.002759599 0.05499974
v -0.003263508 1.042488E-07 0.05999972
v -0.002640173 0.001918531 0.05999972
v -0.001008262 0.003104183 0.05999972
v 0.001008891 0.003104183 0.05999972
v 0.002640802 0.00191853 0.05999972
v 0.003264136 1.035705E-07 0.05999972
v 0.002640801 -0.001918323 0.05999972
v 0.00100889 -0.003103975 0.05999972
v -0.001008263 -0.003103975 0.05999972
v -0.002640174 -0.001918321 0.05999972
v -0.001589248 1.048448E-07 0.06499969
v -0.001285669 0.0009344263 0.06499969
v -0.0004908876 0.001511869 0.06499969
v 0.0004915162 0.001511869 0.06499969
v 0.001286297 0.000934426 0.06499969
v 0.001589877 1.044448E-07 0.06499969
v 0.001286297 -0.0009342171 0.06499969
v 0.0004915154 -0.001511659 0.06499969
v -0.0004908884 -0.001511659 0.06499969
v -0.00128567 -0.0009342161 0.06499969
v 3.140894E-07 1.053574E-07 0.06929968
vn -0.9941369 0.1072741 0.01356318
vn -0.7412197 0.6711254 0.01356309
vn -0.2051816 0.9786299 0.01356301
vn 0.4092287 0.912331 0.01356309
vn 0.8673277 0.4975526 0.01356323
vn 0.994137 -0.107274 0.01356321
vn 0.7412196 -0.6711255 0.01356336
vn 0.2051815 -0.9786299 0.01356355
vn -0.409229 -0.9123309 0.01356358
vn -0.8673279 -0.4975525 0.01356345
vn -0.9996518 -0.001167671 0.02636007
vn -0.8094218 0.5866356 0.02635991
vn -0.3100201 0.9503645 0.02635979
vn 0.3077987 0.9510863 0.02635974
vn 0.8080489 0.5885255 0.0263599
vn 0.9996518 0.001167814 0.02635993
vn 0.8094217 -0.5866359 0.02635996
vn 0.31002 -0.9503645 0.02636008
vn -0.3077989 -0.9510863 0.02636011
vn -0.808049 -0.5885252 0.02636013
vn -0.998665 -0.002323304 0.05160205
vn -0.8093027 0.5851207 0.05160204
vn -0.3108144 0.9490688 0.05160199
vn 0.3063947 0.9505049 0.05160193
vn 0.8065713 0.5888803 0.05160195
vn 0.9986651 0.002323483 0.05160208
vn 0.8093027 -0.5851209 0.05160212
vn 0.3108141 -0.949069 0.05160215
vn -0.3063948 -0.9505048 0.05160217
vn -0.8065713 -0.5888801 0.05160208
vn -0.9970747 -0.003532132 0.07635257
vn -0.8087267 0.583208 0.07635246
vn -0.3114725 0.9471828 0.07635241
vn 0.3047535 0.9493659 0.07635242
vn 0.8045741 0.5889234 0.07635244
vn 0.9970747 0.003532244 0.07635251
vn 0.8087265 -0.5832081 0.07635259
vn 0.3114723 -0.9471828 0.07635261
vn -0.3047538 -0.9493659 0.07635259
vn -0.8045741 -0.5889233 0.07635265
vn -0.9949182 -0.004836319 0.1005708
vn -0.8077486 0.5808853 0.1005708
vn -0.3120465 0.9447288 0.1005707
vn 0.3028468 0.947718 0.1005707
vn 0.8020628 0.588711 0.1005707
vn 0.9949182 0.004836469 0.1005707
vn 0.8077485 -0.5808855 0.1005708
vn 0.3120463 -0.9447289 0.1005708
vn -0.302847 -0.947718 0.1005708
vn -0.802063 -0.5887109 0.1005708
vn -0.9922347 -0.00629015 0.1242206
vn -0.8064322 0.5781319 0.1242205
vn -0.3126 0.9417273 0.1242206
vn 0.3006348 0.9456151 0.1242206
vn 0.7990372 0.5883099 0.1242206
vn 0.9922346 0.006290363 0.1242207
vn 0.8064321 -0.5781319 0.1242208
vn 0.3125998 -0.9417275 0.1242208
vn -0.3006351 -0.945615 0.1242208
vn -0.7990375 -0.5883099 0.1242207
vn -0.9890642 -0.007968918 0.1472703
vn -0.8048539 0.5749101 0.1472702
vn -0.3132169 0.9381933 0.1472701
vn 0.2980585 0.9431186 0.1472701
vn 0.7954856 0.5878046 0.1472702
vn 0.9890642 0.00796913 0.1472703
vn 0.8048538 -0.5749101 0.1472704
vn 0.3132166 -0.9381933 0.1472705
vn -0.2980587 -0.9431184 0.1472705
vn -0.7954857 -0.5878044 0.1472704
vn -0.98312 -0.01080186 0.182643
vn -0.8017102 0.5691242 0.1826429
vn -0.3140743 0.9316646 0.1826428
vn 0.2935273 0.9383408 0.1826427
vn 0.7890115 0.5866024 0.1826427
vn 0.98312 0.01080208 0.1826429
vn 0.80171 -0.5691244 0.182643
vn 0.314074 -0.9316646 0.182643
vn -0.2935275 -0.9383406 0.1826431
vn -0.7890115 -0.5866024 0.1826431
vn -0.9783097 -0.01367705 0.2066956
vn -0.7995085 0.5639707 0.2066955
vn -0.3153223 0.9262012 0.2066955
vn 0.2893064 0.9346544 0.2066955
vn 0.7834298 0.5861012 0.2066956
vn 0.9783097 0.01367719 0.2066956
vn 0.7995084 -0.5639709 0.2066957
vn 0.315322 -0.9262013 0.2066958
vn -0.2893067 -0.9346542 0.2066957
vn -0.7834299 -0.586101 0.2066957
vn -0.9763632 -0.01645502 0.2155085
vn -0.7995667 0.5605793 0.2155084
vn -0.3173628 0.9234918 0.2155084
vn 0.286063 0.9336616 0.2155085
vn 0.7802224 0.5872045 0.2155085
vn 0.9763633 0.01645514 0.2155085
vn 0.7995666 -0.5605795 0.2155086
vn 0.3173625 -0.9234917 0.2155087
vn -0.2860632 -0.9336615 0.2155087
vn -0.7802224 -0.5872044 0.2155086
vn -0.9715672 -0.0215296 0.2357829
vn -0.7986693 0.5536548 0.2357828
vn -0.3207069 0.9173623 0.2357828
vn 0.2797547 0.9306684 0.2357827
vn 0.7733595 0.5884909 0.2357828
vn 0.9715672 0.02152971 0.2357828
vn 0.7986692 -0.553655 0.2357829
vn 0.3207067 -0.9173623 0.235783
vn -0.279755 -0.9306684 0.235783
vn -0.7733597 -0.5884907 0.2357829
vn -0.9652807 -0.03026748 0.2594553
vn -0.7987195 0.5428905 0.2594553
vn -0.3270746 0.9086832 0.2594553
vn 0.2695018 0.9273897 0.2594553
vn 0.7631375 0.5918649 0.2594553
vn 0.9652807 0.03026776 0.2594554
vn 0.7987193 -0.5428907 0.2594555
vn 0.3270743 -0.9086833 0.2594555
vn -0.269502 -0.9273897 0.2594555
vn -0.7631377 -0.5918647 0.2594554
vn -0.9548709 -0.04981925 0.2928132
vn -0.8017901 0.5209541 0.2928132
vn -0.3424526 0.8927411 0.2928132
vn 0.2476901 0.9235312 0.2928132
vn 0.7432236 0.6015639 0.2928132
vn 0.9548708 0.04981952 0.2928132
vn 0.8017899 -0.5209542 0.2928134
vn 0.3424524 -0.892741 0.2928134
vn -0.2476902 -0.9235311 0.2928134
vn -0.7432237 -0.6015638 0.2928134
vn -0.9402997 -0.0837176 0.3298906
vn -0.8099267 0.484965 0.3298906
vn -0.3701891 0.8684079 0.3298905
vn 0.2109482 0.9201484 0.3298905
vn 0.7115104 0.6204234 0.3298906
vn 0.9402996 0.08371779 0.3298906
vn 0.8099265 -0.4849652 0.3298907
vn 0.3701887 -0.8684079 0.3298907
vn -0.2109483 -0.9201483 0.3298907
vn -0.7115104 -0.6204233 0.3298907
vn -3.061937E-08 -1.301323E-07 1
g _0
f 11/11/11 12/12/12 1/1/1
f 12/12/12 2/2/2 1/1/1
f 12/12/12 13/13/13 2/2/2
f 13/13/13 3/3/3 2/2/2
f 13/13/13 14/14/14 3/3/3
f 14/14/14 4/4/4 3/3/3
f 14/14/14 15/15/15 4/4/4
f 15/15/15 5/5/5 4/4/4
f 15/15/15 16/16/16 5/5/5
f 16/16/16 6/6/6 5/5/5
f 16/16/16 17/17/17 6/6/6
f 17/17/17 7/7/7 6/6/6
f 17/17/17 18/18/18 7/7/7
f 18/18/18 8/8/8 7/7/7
f 18/18/18 19/19/19 8/8/8
f 19/19/19 9/9/9 8/8/8
f 19/19/19 20/20/20 9/9/9
f 20/20/20 10/10/10 9/9/9
f 20/20/20 11/11/11 10/10/10
f 11/11/11 1/1/1 10/10/10
f 21/21/21 22/22/22 11/11/11
f 22/22/22 12/12/12 11/11/11
f 22/22/22 23/23/23 12/12/12
f 23/23/23 13/13/13 12/12/12
f 23/23/23 24/24/24 13/13/13
f 24/24/24 14/14/14 13/13/13
f 24/24/24 25/25/25 14/14/14
f 25/25/25 15/15/15 14/14/14
f 25/25/25 26/26/26 15/15/15
f 26/26/26 16/16/16 15/15/15
f 26/26/26 27/27/27 16/16/16
f 27/27/27 17/17/17 16/16/16
f 27/27/27 28/28/28 17/17/17
f 28/28/28 18/18/18 17/17/17
f 28/28/28 29/29/29 18/18/18
f 29/29/29 19/19/19 18/18/18
f 29/29/29 30/30/30 19/19/19
f 30/30/30 20/20/20 19/19/19
f 30/30/30 21/21/21 20/20/20
f 21/21/21 11/11/11 20/20/20
f 31/31/31 32/32/32 21/21/21
f 32/32/32 22/22/22 21/21/21
f 32/32/32 33/33/33 22/22/22
f 33/33/33 23/23/23 22/22/22
f 33/33/33 34/34/34 23/23/23
f 34/34/34 24/24/24 23/23/23
f 34/34/34 35/35/35 24/24/24
f 35/35/35 25/25/25 24/24/24
f 35/35/35 36/36/36 25/25/25
f 36/36/36 26/26/26 25/25/25
f 36/36/36 37/37/37 26/26/26
f 37/37/37 27/27/27 26/26/26
f 37/37/37 38/38/38 27/27/27
f 38/38/38 28/28/28 27/27/27
f 38/38/38 39/39/39 28/28/28
f 39/39/39 29/29/29 28/28/28
f 39/39/39 40/40/40 29/29/29
f 40/40/40 30/30/30 29/29/29
f 40/40/40 31/31/31 30/30/30
f 31/31/31 21/21/21 30/30/30
f 41/41/41 42/42/42 31/31/31
f 42/42/42 32/32/32 31/31/31
f 42/42/42 43/43/43 32/32/32
f 43/43/43 33/33/33 32/32/32
f 43/43/43 44/44/44 33/33/33
f 44/44/44 34/34/34 33/33/33
f 44/44/44 45/45/45 34/34/34
f 45/45/45 35/35/35 34/34/34
f 45/45/45 46/46/46 35/35/35
f 46/46/46 36/36/36 35/35/35
f 46/46/46 47/47/47 36/36/36
f 47/47/47 37/37/37 36/36/36
f 47/47/47 48/48/48 37/37/37
f 48/48/48 38/38/38 37/37/37
f 48/48/48 49/49/49 38/38/38
f 49/49/49 39/39/39 38/38/38
f 49/49/49 50/50/50 39/39/39
f 50/50/50 40/40/40 39/39/39
f 50/50/50 41/41/41 40/40/40
f 41/41/41 31/31/31 40/40/40
f 51/51/51 52/52/52 41/41/41
f 52/52/52 42/42/42 41/41/41
f 52/52/52 53/53/53 42/42/42
f 53/53/53 43/43/43 42/42/42
f 53/53/53 54/54/54 43/43/43
f 54/54/54 44/44/44 43/43/43
f 54/54/54 55/55/55 44/44/44
f 55/55/55 45/45/45 44/44/44
f 55/55/55 56/56/56 45/45/45
f 56/56/56 46/46/46 45/45/45
f 56/56/56 57/57/57 46/46/46
f 57/57/57 47/47/47 46/46/46
f 57/57/57 58/58/58 47/47/47
f 58/58/58 48/48/48 47/47/47
f 58/58/58 59/59/59 48/48/48
f 59/59/59 49/49/49 48/48/48
f 59/59/59 60/60/60 49/49/49
f 60/60/60 50/50/50 49/49/49
f 60/60/60 51/51/51 50/50/50
f 51/51/51 41/41/41 50/50/50
f 61/61/61 62/62/62 51/51/51
f 62/62/62 52/52/52 51/51/51
f 62/62/62 63/63/63 52/52/52
f 63/63/63 53/53/53 52/52/52
f 63/63/63 64/64/64 53/53/53
f 64/64/64 54/54/54 53/53/53
f 64/64/64 65/65/65 54/54/54
f 65/65/65 55/55/55 54/54/54
f 65/65/65 66/66/66 55/55/55
f 66/66/66 56/56/56 55/55/55
f 66/66/66 67/67/67 56/56/56
f 67/67/67 57/57/57 56/56/56
f 67/67/67 68/68/68 57/57/57
f 68/68/68 58/58/58 57/57/57
f 68/68/68 69/69/69 58/58/58
f 69/69/69 59/59/59 58/58/58
f 69/69/69 70/70/70 59/59/59
f 70/70/70 60/60/60 59/59/59
f 70/70/70 61/61/61 60/60/60
f 61/61/61 51/51/51 60/60/60
f 71/71/71 72/72/72 61/61/61
f 72/72/72 62/62/62 61/61/61
f 72/72/72 73/73/73 62/62/62
f 73/73/73 63/63/63 62/62/62
f 73/73/73 74/74/74 63/63/63
f 74/74/74 64/64/64 63/63/63
f 74/74/74 75/75/75 64/64/64
f 75/75/75 65/65/65 64/64/64
f 75/75/75 76/76/76 65/65/65
f 76/76/76 66/66/66 65/65/65
f 76/76/76 77/77/77 66/66/66
f 77/77/77 67/67/67 66/66/66
f 77/77/77 78/78/78 67/67/67
f 78/78/78 68/68/68 67/67/67
f 78/78/78 79/79/79 68/68/68
f 79/79/79 69/69/69 68/68/68
f 79/79/79 80/80/80 69/69/69
f 80/80/80 70/70/70 69/69/69
f 80/80/80 71/71/71 70/70/70
f 71/71/71 61/61/61 70/70/70
f 81/81/81 82/82/82 71/71/71
f 82/82/82 72/72/72 71/71/71
f 82/82/82 83/83/83 72/72/72
f 83/83/83 73/73/73 72/72/72
f 83/83/83 84/84/84 73/73/73
f 84/84/84 74/74/74 73/73/73
f 84/84/84 85/85/85 74/74/74
f 85/85/85 75/75/75 74/74/74
f 85/85/85 86/86/86 75/75/75
f 86/86/86 76/76/76 75/75/75
f 86/86/86 87/87/87 76/76/76
f 87/87/87 77/77/77 76/76/76
f 87/87/87 88/88/88 77/77/77
f 88/88/88 78/78/78 77/77/77
f 88/88/88 89/89/89 78/78/78
f 89/89/89 79/79/79 78/78/78
f 89/89/89 90/90/90 79/79/79
f 90/90/90 80/80/80 79/79/79
f 90/90/90 81/81/81 80/80/80
f 81/81/81 71/71/71 80/80/80
f 91/91/91 92/92/92 81/81/81
f 92/92/92 82/82/82 81/81/81
f 92/92/92 93/93/93 82/82/82
f 93/93/93 83/83/83 82/82/82
f 93/93/93 94/94/94 83/83/83
f 94/94/94 84/84/84 83/83/83
f 94/94/94 95/95/95 84/84/84
f 95/95/95 85/85/85 84/84/84
f 95/95/95 96/96/96 85/85/85
f 96/96/96 86/86/86 85/85/85
f 96/96/96 97/97/97 86/86/86
f 97/97/97 87/87/87 86/86/86
f 97/97/97 98/98/98 87/87/87
f 98/98/98 88/88/88 87/87/87
f 98/98/98 99/99/99 88/88/88
f 99/99/99 89/89/89 88/88/88
f 99/99/99 100/100/100 89/89/89
f 100/100/100 90/90/90 89/89/89
f 100/100/100 91/91/91 90/90/90
f 91/91/91 81/81/81 90/90/90
f 101/101/101 102/102/102 91/91/91
f 102/102/102 92/92/92 91/91/91
f 102/102/102 103/103/103 92/92/92
f 103/103/103 93/93/93 92/92/92
f 103/103/103 104/104/104 93/93/93
f 104/104/104 94/94/94 93/93/93
f 104/104/104 105/105/105 94/94/94
f 105/105/105 95/95/95 94/94/94
f 105/105/105 106/106/106 95/95/95
f 106/106/106 96/96/96 95/95/95
f 106/106/106 107/107/107 96/96/96
f 107/107/107 97/97/97 96/96/96
f 107/107/107 108/108/108 97/97/97
f 108/108/108 98/98/98 97/97/97
f 108/108/108 109/109/109 98/98/98
f 109/109/109 99/99/99 98/98/98
f 109/109/109 110/110/110 99/99/99
f 110/110/110 100/100/100 99/99/99
f 110/110/110 101/101/101 100/100/100
f 101/101/101 91/91/91 100/100/100
f 111/111/111 112/112/112 101/101/101
f 112/112/112 102/102/102 101/101/101
f 112/112/112 113/113/113 102/102/102
f 113/113/113 103/103/103 102/102/102
f 113/113/113 114/114/114 103/103/103
f 114/114/114 104/104/104 103/103/103
f 114/114/114 115/115/115 104/104/104
f 115/115/115 105/105/105 104/104/104
f 115/115/115 116/116/116 105/105/105
f 116/116/116 106/106/106 105/105/105
f 116/116/116 117/117/117 106/106/106
f 117/117/117 107/107/107 106/106/106
f 117/117/117 118/118/118 107/107/107
f 118/118/118 108/108/108 107/107/107
f 118/118/118 119/119/119 108/108/108
f 119/119/119 109/109/109 108/108/108
f 119/119/119 120/120/120 109/109/109
f 120/120/120 110/110/110 109/109/109
f 120/120/120 111/111/111 110/110/110
f 111/111/111 101/101/101 110/110/110
f 121/121/121 122/122/122 111/111/111
f 122/122/122 112/112/112 111/111/111
f 122/122/122 123/123/123 112/112/112
f 123/123/123 113/113/113 112/112/112
f 123/123/123 124/124/124 113/113/113
f 124/124/124 114/114/114 113/113/113
f 124/124/124 125/125/125 114/114/114
f 125/125/125 115/115/115 114/114/114
f 125/125/125 126/126/126 115/115/115
f 126/126/126 116/116/116 115/115/115
f 126/126/126 127/127/127 116/116/116
f 127/127/127 117/117/117 116/116/116
f 127/127/127 128/128/128 117/117/117
f 128/128/128 118/118/118 117/117/117
f 128/128/128 129/129/129 118/118/118
f 129/129/129 119/119/119 118/118/118
f 129/129/129 130/130/130 119/119/119
f 130/130/130 120/120/120 119/119/119
f 130/130/130 121/121/121 120/120/120
f 121/121/121 111/111/111 120/120/120
f 131/131/131 132/132/132 121/121/121
f 132/132/132 122/122/122 121/121/121
f 132/132/132 133/133/133 122/122/122
f 133/133/133 123/123/123 122/122/122
f 133/133/133 134/134/134 123/123/123
f 134/134/134 124/124/124 123/123/123
f 134/134/134 135/135/135 124/124/124
f 135/135/135 125/125/125 124/124/124
f 135/135/135 136/136/136 125/125/125
f 136/136/136 126/126/126 125/125/125
f 136/136/136 137/137/137 126/126/126
f 137/137/137 127/127/127 126/126/126
f 137/137/137 138/138/138 127/127/127
f 138/138/138 128/128/128 127/127/127
f 138/138/138 139/139/139 128/128/128
f 139/139/139 129/129/129 128/128/128
f 139/139/139 140/140/140 129/129/129
f 140/140/140 130/130/130 129/129/129
f 140/140/140 131/131/131 130/130/130
f 131/131/131 121/121/121 130/130/130
f 141/141/141 132/132/132 131/131/131
f 141/141/141 132/132/132 131/131/131
f 141/141/141 133/133/133 132/132/132
f 141/141/141 133/133/133 132/132/132
f 141/141/141 134/134/134 133/133/133
f 141/141/141 134/134/134 133/133/133
f 141/141/141 135/135/135 134/134/134
f 141/141/141 135/135/135 134/134/134
f 141/141/141 136/136/136 135/135/135
f 141/141/141 136/136/136 135/135/135
f 141/141/141 137/137/137 136/136/136
f 141/141/141 137/137/137 136/136/136
f 141/141/141 138/138/138 137/137/137
f 141/141/141 138/138/138 137/137/137
f 141/141/141 139/139/139 138/138/138
f 141/141/141 139/139/139 138/138/138
f 141/141/141 140/140/140 139/139/139
f 141/141/141 140/140/140 139/139/139
f 141/141/141 131/131/131 140/140/140
f 141/141/141 131/131/131 140/140/140
