g 
v -0.008668177 3.853064E-08 -1.413221E-08
v -0.007012649 0.00509523 -1.413221E-08
v -0.00267842 0.00824423 -1.413221E-08
v 0.002678982 0.00824423 -1.413221E-08
v 0.00701321 0.005095229 -1.413221E-08
v 0.008668737 3.639147E-08 -1.413221E-08
v 0.007013208 -0.005095155 -1.413221E-08
v 0.002678978 -0.008244156 -1.413221E-08
v -0.002678424 -0.008244154 -1.413221E-08
v -0.007012652 -0.00509515 -1.413221E-08
v -0.008659394 3.895635E-08 0.003571155
v -0.007005543 0.005090068 0.003571155
v -0.002675706 0.008235878 0.003571155
v 0.002676267 0.008235878 0.003571155
v 0.007006105 0.005090067 0.003571155
v 0.008659954 3.693529E-08 0.003571155
v 0.007006103 -0.005089992 0.003571155
v 0.002676264 -0.008235802 0.003571155
v -0.00267571 -0.0082358 0.003571155
v -0.007005547 -0.005089987 0.003571155
v -0.008614874 3.938207E-08 0.007142325
v -0.006969525 0.0050639 0.007142325
v -0.002661948 0.008193537 0.007142325
v 0.00266251 0.008193537 0.007142325
v 0.006970087 0.005063899 0.007142325
v 0.008615433 3.759338E-08 0.007142325
v 0.006970085 -0.005063822 0.007142325
v 0.002662507 -0.00819346 0.007142325
v -0.002661952 -0.008193458 0.007142325
v -0.006969528 -0.005063818 0.007142325
v -0.008507101 3.980779E-08 0.01071349
v -0.006882335 0.005000553 0.01071349
v -0.002628644 0.00809104 0.01071349
v 0.002629206 0.00809104 0.01071349
v 0.006882897 0.005000552 0.01071349
v 0.008507661 3.806032E-08 0.01071349
v 0.006882895 -0.005000475 0.01071349
v 0.002629203 -0.008090962 0.01071349
v -0.002628649 -0.00809096 0.01071349
v -0.006882339 -0.005000471 0.01071349
v -0.008308557 4.02335E-08 0.01428466
v -0.00672171 0.004883852 0.01428466
v -0.002567291 0.007902213 0.01428466
v 0.002567853 0.007902213 0.01428466
v 0.006722271 0.004883851 0.01428466
v 0.008309117 3.861039E-08 0.01428466
v 0.006722269 -0.004883774 0.01428466
v 0.002567849 -0.007902134 0.01428466
v -0.002567295 -0.007902132 0.01428466
v -0.006721713 -0.004883769 0.01428466
v -0.007991724 4.065922E-08 0.01785583
v -0.006465387 0.004697622 0.01785583
v -0.002469385 0.007600888 0.01785583
v 0.002469946 0.007600888 0.01785583
v 0.006465948 0.004697622 0.01785583
v 0.007992283 3.917653E-08 0.01785583
v 0.006465946 -0.004697543 0.01785583
v 0.002469943 -0.007600808 0.01785583
v -0.002469388 -0.007600807 0.01785583
v -0.006465389 -0.004697539 0.01785583
v -0.00753175 4.108493E-08 0.021427
v -0.00609326 0.004427257 0.021427
v -0.002327245 0.007163427 0.021427
v 0.002327806 0.007163426 0.021427
v 0.006093821 0.004427256 0.021427
v 0.00753231 3.962925E-08 0.021427
v 0.006093819 -0.004427177 0.021427
v 0.002327803 -0.007163346 0.021427
v -0.002327248 -0.007163345 0.021427
v -0.006093263 -0.004427173 0.021427
v -0.006970643 4.151065E-08 0.02499817
v -0.005639315 0.004097447 0.02499817
v -0.002153853 0.006629783 0.02499817
v 0.002154414 0.006629783 0.02499817
v 0.005639876 0.004097447 0.02499817
v 0.006971203 4.045398E-08 0.02499817
v 0.005639875 -0.004097366 0.02499817
v 0.002154412 -0.006629702 0.02499817
v -0.002153856 -0.006629701 0.02499817
v -0.005639317 -0.004097363 0.02499817
v -0.006226014 4.193637E-08 0.02856934
v -0.005036897 0.003659766 0.02856934
v -0.00192375 0.005921599 0.02856934
v 0.001924311 0.005921599 0.02856934
v 0.005037458 0.003659765 0.02856934
v 0.006226574 4.05333E-08 0.02856934
v 0.005037457 -0.003659684 0.02856934
v 0.001924309 -0.005921517 0.02856934
v -0.001923753 -0.005921515 0.02856934
v -0.0050369 -0.00365968 0.02856934
v -0.005474213 4.236213E-08 0.03214089
v -0.004428678 0.003217869 0.03214089
v -0.001691431 0.005206595 0.03214089
v 0.001691992 0.005206594 0.03214089
v 0.004429238 0.003217868 0.03214089
v 0.005474773 4.107256E-08 0.03214089
v 0.004429237 -0.003217785 0.03214089
v 0.00169199 -0.005206511 0.03214089
v -0.001691434 -0.00520651 0.03214089
v -0.004428681 -0.003217783 0.03214089
v -0.004619694 4.27879E-08 0.03571248
v -0.003737358 0.002715596 0.03571248
v -0.00142737 0.0043939 0.03571248
v 0.001427931 0.0043939 0.03571248
v 0.003737919 0.002715595 0.03571248
v 0.004620255 4.175716E-08 0.03571248
v 0.003737918 -0.002715511 0.03571248
v 0.001427929 -0.004393815 0.03571248
v -0.001427373 -0.004393814 0.03571248
v -0.00373736 -0.002715509 0.03571248
v -0.003653721 4.321366E-08 0.03928408
v -0.002955869 0.002147811 0.03928408
v -0.001128868 0.003475205 0.03928408
v 0.001129429 0.003475205 0.03928408
v 0.002956429 0.002147811 0.03928408
v 0.003654281 4.245267E-08 0.03928408
v 0.002956429 -0.002147726 0.03928408
v 0.001129427 -0.003475119 0.03928408
v -0.00112887 -0.003475119 0.03928408
v -0.002955871 -0.002147724 0.03928408
v -0.00256756 4.363943E-08 0.04285567
v -0.002077146 0.001509382 0.04285567
v -0.0007932261 0.002442205 0.04285567
v 0.0007937864 0.002442204 0.04285567
v 0.002077706 0.001509382 0.04285567
v 0.00256812 4.30615E-08 0.04285567
v 0.002077706 -0.001509295 0.04285567
v 0.0007937853 -0.002442118 0.04285567
v -0.0007932273 -0.002442117 0.04285567
v -0.002077147 -0.001509294 0.04285567
v -0.001352471 4.40652E-08 0.04642727
v -0.001094119 0.0007951713 0.04642727
v -0.0004177432 0.001286587 0.04642727
v 0.0004183031 0.001286587 0.04642727
v 0.001094679 0.0007951711 0.04642727
v 0.001353031 4.377813E-08 0.04642727
v 0.001094678 -0.0007950835 0.04642727
v 0.0004183026 -0.001286499 0.04642727
v -0.0004177438 -0.001286499 0.04642727
v -0.001094119 -0.0007950828 0.04642727
v 2.798467E-07 4.443136E-08 0.04949884
vn -0.9941908 0.1076049 0.002445235
vn -0.7410687 0.6714247 0.002445095
vn -0.2048837 0.9787832 0.002444842
vn 0.40956 0.9122799 0.002444895
vn 0.8675658 0.4973165 0.002444978
vn 0.9941907 -0.1076048 0.002444979
vn 0.7410687 -0.6714248 0.002445144
vn 0.2048835 -0.9787834 0.002445355
vn -0.4095603 -0.9122798 0.002445307
vn -0.8675658 -0.4973164 0.002445205
vn -0.9999722 -0.0003331453 0.007457648
vn -0.8091905 0.5874991 0.007457659
vn -0.3093256 0.950927 0.007457608
vn 0.3086912 0.9511331 0.007457544
vn 0.8087985 0.5880385 0.007457591
vn 0.9999722 0.0003333662 0.007457679
vn 0.8091904 -0.5874992 0.007457717
vn 0.3093253 -0.950927 0.007457766
vn -0.3086915 -0.951133 0.007457866
vn -0.8087986 -0.5880386 0.007457791
vn -0.9997729 -0.000957902 0.02129161
vn -0.8093964 0.5868766 0.02129149
vn -0.3098581 0.9505443 0.02129143
vn 0.3080355 0.9511366 0.02129155
vn 0.8082701 0.5884269 0.02129162
vn 0.9997729 0.0009580904 0.02129166
vn 0.8093964 -0.5868766 0.02129176
vn 0.3098578 -0.9505445 0.02129177
vn -0.3080358 -0.9511365 0.0212917
vn -0.8082701 -0.5884268 0.02129168
vn -0.9990829 -0.001951158 0.04277173
vn -0.8094221 0.5856675 0.04277172
vn -0.3105896 0.9495813 0.04277166
vn 0.3068777 0.9507874 0.0427716
vn 0.8071281 0.5888249 0.04277171
vn 0.9990829 0.001951314 0.04277179
vn 0.809422 -0.5856676 0.04277187
vn 0.3105893 -0.9495813 0.04277196
vn -0.3068779 -0.9507872 0.04277202
vn -0.8071281 -0.5888249 0.04277187
vn -0.9974134 -0.003357993 0.07180024
vn -0.8088984 0.583548 0.07180011
vn -0.3114116 0.9475588 0.07180009
vn 0.3050238 0.9496343 0.07180015
vn 0.8049506 0.5889817 0.07180014
vn 0.9974133 0.003358096 0.07180021
vn 0.8088982 -0.5835481 0.07180028
vn 0.3114113 -0.9475588 0.07180028
vn -0.3050241 -0.9496341 0.07180028
vn -0.8049505 -0.5889817 0.07180033
vn -0.9941586 -0.005248232 0.1078018
vn -0.8073762 0.5801057 0.1078018
vn -0.3122035 0.9438792 0.1078017
vn 0.3022203 0.9471229 0.1078018
vn 0.8012063 0.5885978 0.1078018
vn 0.9941586 0.005248316 0.1078018
vn 0.807376 -0.5801057 0.1078019
vn 0.3122032 -0.9438791 0.1078019
vn -0.3022206 -0.9471228 0.1078018
vn -0.8012064 -0.5885977 0.1078018
vn -0.9899532 -0.00728353 0.1412079
vn -0.8051702 0.5759872 0.1412078
vn -0.3128396 0.9392506 0.1412078
vn 0.2989851 0.9437522 0.1412078
vn 0.7966077 0.5877725 0.1412079
vn 0.9899532 0.007283666 0.1412079
vn 0.8051702 -0.5759873 0.1412079
vn 0.3128394 -0.9392506 0.141208
vn -0.2989853 -0.9437522 0.141208
vn -0.7966077 -0.5877724 0.141208
vn -0.9837872 -0.01002279 0.1790597
vn -0.8017919 0.5701467 0.1790596
vn -0.3135395 0.9325399 0.1790596
vn 0.2944745 0.9387345 0.1790596
vn 0.7900092 0.5863643 0.1790596
vn 0.9837872 0.01002296 0.1790597
vn 0.8017918 -0.5701469 0.1790598
vn 0.3135392 -0.9325399 0.1790599
vn -0.2944747 -0.9387344 0.1790599
vn -0.7900092 -0.5863643 0.1790598
vn -0.9786794 -0.01273425 0.2049987
vn -0.7992535 0.5649509 0.2049986
vn -0.3145398 0.9268443 0.2049985
vn 0.2903174 0.9347146 0.2049986
vn 0.7842832 0.5855557 0.2049986
vn 0.9786794 0.0127344 0.2049987
vn 0.7992533 -0.5649509 0.2049987
vn 0.3145396 -0.9268443 0.2049988
vn -0.2903176 -0.9347146 0.2049988
vn -0.7842833 -0.5855556 0.2049988
vn -0.9756649 -0.01555045 0.2187151
vn -0.79847 0.5609005 0.2187151
vn -0.3162867 0.923107 0.218715
vn 0.2867074 0.9327179 0.218715
vn 0.7801889 0.5860622 0.218715
vn 0.9756648 0.01555069 0.2187151
vn 0.7984698 -0.5609006 0.2187152
vn 0.3162865 -0.923107 0.2187152
vn -0.2867076 -0.9327178 0.2187153
vn -0.7801891 -0.5860621 0.2187152
vn -0.9690542 -0.02076178 0.2459733
vn -0.796185 0.5527989 0.2459732
vn -0.3192002 0.9152095 0.2459731
vn 0.2797083 0.9280411 0.2459731
vn 0.7717778 0.5863926 0.2459732
vn 0.9690542 0.02076202 0.2459732
vn 0.7961849 -0.552799 0.2459733
vn 0.3191999 -0.9152095 0.2459734
vn -0.2797085 -0.928041 0.2459734
vn -0.7717777 -0.5863925 0.2459734
vn -0.9611117 -0.02939119 0.2745915
vn -0.7948316 0.541149 0.2745914
vn -0.3249528 0.9049891 0.2745914
vn 0.2690469 0.923154 0.2745914
vn 0.7602798 0.5887054 0.2745914
vn 0.9611116 0.02939139 0.2745915
vn 0.7948315 -0.5411492 0.2745916
vn 0.3249525 -0.9049891 0.2745916
vn -0.2690471 -0.9231538 0.2745916
vn -0.7602799 -0.5887053 0.2745916
vn -0.9515451 -0.04656896 0.3039628
vn -0.7971888 0.5216288 0.3039627
vn -0.3383335 0.8905825 0.3039627
vn 0.2497537 0.9193638 0.3039627
vn 0.7424435 0.5969794 0.3039627
vn 0.951545 0.04656908 0.3039628
vn 0.7971888 -0.5216289 0.3039629
vn 0.3383334 -0.8905824 0.3039629
vn -0.2497538 -0.9193637 0.3039629
vn -0.7424436 -0.5969793 0.3039629
vn -0.9296904 -0.07813955 0.3599584
vn -0.7980648 0.4832417 0.3599583
vn -0.3616056 0.8600416 0.3599583
vn 0.2129748 0.9083346 0.3599583
vn 0.7062059 0.6096746 0.3599583
vn 0.9296904 0.07813969 0.3599584
vn 0.7980646 -0.4832419 0.3599584
vn 0.3616053 -0.8600416 0.3599585
vn -0.2129749 -0.9083345 0.3599585
vn -0.706206 -0.6096746 0.3599585
vn -2.113906E-08 1.1098E-07 1
g _0
f 11/11/11 12/12/12 1/1/1
f 12/12/12 2/2/2 1/1/1
f 12/12/12 13/13/13 2/2/2
f 13/13/13 3/3/3 2/2/2
f 13/13/13 14/14/14 3/3/3
f 14/14/14 4/4/4 3/3/3
f 14/14/14 15/15/15 4/4/4
f 15/15/15 5/5/5 4/4/4
f 15/15/15 16/16/16 5/5/5
f 16/16/16 6/6/6 5/5/5
f 16/16/16 17/17/17 6/6/6
f 17/17/17 7/7/7 6/6/6
f 17/17/17 18/18/18 7/7/7
f 18/18/18 8/8/8 7/7/7
f 18/18/18 19/19/19 8/8/8
f 19/19/19 9/9/9 8/8/8
f 19/19/19 20/20/20 9/9/9
f 20/20/20 10/10/10 9/9/9
f 20/20/20 11/11/11 10/10/10
f 11/11/11 1/1/1 10/10/10
f 21/21/21 22/22/22 11/11/11
f 22/22/22 12/12/12 11/11/11
f 22/22/22 23/23/23 12/12/12
f 23/23/23 13/13/13 12/12/12
f 23/23/23 24/24/24 13/13/13
f 24/24/24 14/14/14 13/13/13
f 24/24/24 25/25/25 14/14/14
f 25/25/25 15/15/15 14/14/14
f 25/25/25 26/26/26 15/15/15
f 26/26/26 16/16/16 15/15/15
f 26/26/26 27/27/27 16/16/16
f 27/27/27 17/17/17 16/16/16
f 27/27/27 28/28/28 17/17/17
f 28/28/28 18/18/18 17/17/17
f 28/28/28 29/29/29 18/18/18
f 29/29/29 19/19/19 18/18/18
f 29/29/29 30/30/30 19/19/19
f 30/30/30 20/20/20 19/19/19
f 30/30/30 21/21/21 20/20/20
f 21/21/21 11/11/11 20/20/20
f 31/31/31 32/32/32 21/21/21
f 32/32/32 22/22/22 21/21/21
f 32/32/32 33/33/33 22/22/22
f 33/33/33 23/23/23 22/22/22
f 33/33/33 34/34/34 23/23/23
f 34/34/34 24/24/24 23/23/23
f 34/34/34 35/35/35 24/24/24
f 35/35/35 25/25/25 24/24/24
f 35/35/35 36/36/36 25/25/25
f 36/36/36 26/26/26 25/25/25
f 36/36/36 37/37/37 26/26/26
f 37/37/37 27/27/27 26/26/26
f 37/37/37 38/38/38 27/27/27
f 38/38/38 28/28/28 27/27/27
f 38/38/38 39/39/39 28/28/28
f 39/39/39 29/29/29 28/28/28
f 39/39/39 40/40/40 29/29/29
f 40/40/40 30/30/30 29/29/29
f 40/40/40 31/31/31 30/30/30
f 31/31/31 21/21/21 30/30/30
f 41/41/41 42/42/42 31/31/31
f 42/42/42 32/32/32 31/31/31
f 42/42/42 43/43/43 32/32/32
f 43/43/43 33/33/33 32/32/32
f 43/43/43 44/44/44 33/33/33
f 44/44/44 34/34/34 33/33/33
f 44/44/44 45/45/45 34/34/34
f 45/45/45 35/35/35 34/34/34
f 45/45/45 46/46/46 35/35/35
f 46/46/46 36/36/36 35/35/35
f 46/46/46 47/47/47 36/36/36
f 47/47/47 37/37/37 36/36/36
f 47/47/47 48/48/48 37/37/37
f 48/48/48 38/38/38 37/37/37
f 48/48/48 49/49/49 38/38/38
f 49/49/49 39/39/39 38/38/38
f 49/49/49 50/50/50 39/39/39
f 50/50/50 40/40/40 39/39/39
f 50/50/50 41/41/41 40/40/40
f 41/41/41 31/31/31 40/40/40
f 51/51/51 52/52/52 41/41/41
f 52/52/52 42/42/42 41/41/41
f 52/52/52 53/53/53 42/42/42
f 53/53/53 43/43/43 42/42/42
f 53/53/53 54/54/54 43/43/43
f 54/54/54 44/44/44 43/43/43
f 54/54/54 55/55/55 44/44/44
f 55/55/55 45/45/45 44/44/44
f 55/55/55 56/56/56 45/45/45
f 56/56/56 46/46/46 45/45/45
f 56/56/56 57/57/57 46/46/46
f 57/57/57 47/47/47 46/46/46
f 57/57/57 58/58/58 47/47/47
f 58/58/58 48/48/48 47/47/47
f 58/58/58 59/59/59 48/48/48
f 59/59/59 49/49/49 48/48/48
f 59/59/59 60/60/60 49/49/49
f 60/60/60 50/50/50 49/49/49
f 60/60/60 51/51/51 50/50/50
f 51/51/51 41/41/41 50/50/50
f 61/61/61 62/62/62 51/51/51
f 62/62/62 52/52/52 51/51/51
f 62/62/62 63/63/63 52/52/52
f 63/63/63 53/53/53 52/52/52
f 63/63/63 64/64/64 53/53/53
f 64/64/64 54/54/54 53/53/53
f 64/64/64 65/65/65 54/54/54
f 65/65/65 55/55/55 54/54/54
f 65/65/65 66/66/66 55/55/55
f 66/66/66 56/56/56 55/55/55
f 66/66/66 67/67/67 56/56/56
f 67/67/67 57/57/57 56/56/56
f 67/67/67 68/68/68 57/57/57
f 68/68/68 58/58/58 57/57/57
f 68/68/68 69/69/69 58/58/58
f 69/69/69 59/59/59 58/58/58
f 69/69/69 70/70/70 59/59/59
f 70/70/70 60/60/60 59/59/59
f 70/70/70 61/61/61 60/60/60
f 61/61/61 51/51/51 60/60/60
f 71/71/71 72/72/72 61/61/61
f 72/72/72 62/62/62 61/61/61
f 72/72/72 73/73/73 62/62/62
f 73/73/73 63/63/63 62/62/62
f 73/73/73 74/74/74 63/63/63
f 74/74/74 64/64/64 63/63/63
f 74/74/74 75/75/75 64/64/64
f 75/75/75 65/65/65 64/64/64
f 75/75/75 76/76/76 65/65/65
f 76/76/76 66/66/66 65/65/65
f 76/76/76 77/77/77 66/66/66
f 77/77/77 67/67/67 66/66/66
f 77/77/77 78/78/78 67/67/67
f 78/78/78 68/68/68 67/67/67
f 78/78/78 79/79/79 68/68/68
f 79/79/79 69/69/69 68/68/68
f 79/79/79 80/80/80 69/69/69
f 80/80/80 70/70/70 69/69/69
f 80/80/80 71/71/71 70/70/70
f 71/71/71 61/61/61 70/70/70
f 81/81/81 82/82/82 71/71/71
f 82/82/82 72/72/72 71/71/71
f 82/82/82 83/83/83 72/72/72
f 83/83/83 73/73/73 72/72/72
f 83/83/83 84/84/84 73/73/73
f 84/84/84 74/74/74 73/73/73
f 84/84/84 85/85/85 74/74/74
f 85/85/85 75/75/75 74/74/74
f 85/85/85 86/86/86 75/75/75
f 86/86/86 76/76/76 75/75/75
f 86/86/86 87/87/87 76/76/76
f 87/87/87 77/77/77 76/76/76
f 87/87/87 88/88/88 77/77/77
f 88/88/88 78/78/78 77/77/77
f 88/88/88 89/89/89 78/78/78
f 89/89/89 79/79/79 78/78/78
f 89/89/89 90/90/90 79/79/79
f 90/90/90 80/80/80 79/79/79
f 90/90/90 81/81/81 80/80/80
f 81/81/81 71/71/71 80/80/80
f 91/91/91 92/92/92 81/81/81
f 92/92/92 82/82/82 81/81/81
f 92/92/92 93/93/93 82/82/82
f 93/93/93 83/83/83 82/82/82
f 93/93/93 94/94/94 83/83/83
f 94/94/94 84/84/84 83/83/83
f 94/94/94 95/95/95 84/84/84
f 95/95/95 85/85/85 84/84/84
f 95/95/95 96/96/96 85/85/85
f 96/96/96 86/86/86 85/85/85
f 96/96/96 97/97/97 86/86/86
f 97/97/97 87/87/87 86/86/86
f 97/97/97 98/98/98 87/87/87
f 98/98/98 88/88/88 87/87/87
f 98/98/98 99/99/99 88/88/88
f 99/99/99 89/89/89 88/88/88
f 99/99/99 100/100/100 89/89/89
f 100/100/100 90/90/90 89/89/89
f 100/100/100 91/91/91 90/90/90
f 91/91/91 81/81/81 90/90/90
f 101/101/101 102/102/102 91/91/91
f 102/102/102 92/92/92 91/91/91
f 102/102/102 103/103/103 92/92/92
f 103/103/103 93/93/93 92/92/92
f 103/103/103 104/104/104 93/93/93
f 104/104/104 94/94/94 93/93/93
f 104/104/104 105/105/105 94/94/94
f 105/105/105 95/95/95 94/94/94
f 105/105/105 106/106/106 95/95/95
f 106/106/106 96/96/96 95/95/95
f 106/106/106 107/107/107 96/96/96
f 107/107/107 97/97/97 96/96/96
f 107/107/107 108/108/108 97/97/97
f 108/108/108 98/98/98 97/97/97
f 108/108/108 109/109/109 98/98/98
f 109/109/109 99/99/99 98/98/98
f 109/109/109 110/110/110 99/99/99
f 110/110/110 100/100/100 99/99/99
f 110/110/110 101/101/101 100/100/100
f 101/101/101 91/91/91 100/100/100
f 111/111/111 112/112/112 101/101/101
f 112/112/112 102/102/102 101/101/101
f 112/112/112 113/113/113 102/102/102
f 113/113/113 103/103/103 102/102/102
f 113/113/113 114/114/114 103/103/103
f 114/114/114 104/104/104 103/103/103
f 114/114/114 115/115/115 104/104/104
f 115/115/115 105/105/105 104/104/104
f 115/115/115 116/116/116 105/105/105
f 116/116/116 106/106/106 105/105/105
f 116/116/116 117/117/117 106/106/106
f 117/117/117 107/107/107 106/106/106
f 117/117/117 118/118/118 107/107/107
f 118/118/118 108/108/108 107/107/107
f 118/118/118 119/119/119 108/108/108
f 119/119/119 109/109/109 108/108/108
f 119/119/119 120/120/120 109/109/109
f 120/120/120 110/110/110 109/109/109
f 120/120/120 111/111/111 110/110/110
f 111/111/111 101/101/101 110/110/110
f 121/121/121 122/122/122 111/111/111
f 122/122/122 112/112/112 111/111/111
f 122/122/122 123/123/123 112/112/112
f 123/123/123 113/113/113 112/112/112
f 123/123/123 124/124/124 113/113/113
f 124/124/124 114/114/114 113/113/113
f 124/124/124 125/125/125 114/114/114
f 125/125/125 115/115/115 114/114/114
f 125/125/125 126/126/126 115/115/115
f 126/126/126 116/116/116 115/115/115
f 126/126/126 127/127/127 116/116/116
f 127/127/127 117/117/117 116/116/116
f 127/127/127 128/128/128 117/117/117
f 128/128/128 118/118/118 117/117/117
f 128/128/128 129/129/129 118/118/118
f 129/129/129 119/119/119 118/118/118
f 129/129/129 130/130/130 119/119/119
f 130/130/130 120/120/120 119/119/119
f 130/130/130 121/121/121 120/120/120
f 121/121/121 111/111/111 120/120/120
f 131/131/131 132/132/132 121/121/121
f 132/132/132 122/122/122 121/121/121
f 132/132/132 133/133/133 122/122/122
f 133/133/133 123/123/123 122/122/122
f 133/133/133 134/134/134 123/123/123
f 134/134/134 124/124/124 123/123/123
f 134/134/134 135/135/135 124/124/124
f 135/135/135 125/125/125 124/124/124
f 135/135/135 136/136/136 125/125/125
f 136/136/136 126/126/126 125/125/125
f 136/136/136 137/137/137 126/126/126
f 137/137/137 127/127/127 126/126/126
f 137/137/137 138/138/138 127/127/127
f 138/138/138 128/128/128 127/127/127
f 138/138/138 139/139/139 128/128/128
f 139/139/139 129/129/129 128/128/128
f 139/139/139 140/140/140 129/129/129
f 140/140/140 130/130/130 129/129/129
f 140/140/140 131/131/131 130/130/130
f 131/131/131 121/121/121 130/130/130
f 141/141/141 132/132/132 131/131/131
f 141/141/141 132/132/132 131/131/131
f 141/141/141 133/133/133 132/132/132
f 141/141/141 133/133/133 132/132/132
f 141/141/141 134/134/134 133/133/133
f 141/141/141 134/134/134 133/133/133
f 141/141/141 135/135/135 134/134/134
f 141/141/141 135/135/135 134/134/134
f 141/141/141 136/136/136 135/135/135
f 141/141/141 136/136/136 135/135/135
f 141/141/141 137/137/137 136/136/136
f 141/141/141 137/137/137 136/136/136
f 141/141/141 138/138/138 137/137/137
f 141/141/141 138/138/138 137/137/137
f 141/141/141 139/139/139 138/138/138
f 141/141/141 139/139/139 138/138/138
f 141/141/141 140/140/140 139/139/139
f 141/141/141 140/140/140 139/139/139
f 141/141/141 131/131/131 140/140/140
f 141/141/141 131/131/131 140/140/140
