g pPlane1_pCylinder3
v 12.29833 0.065281 -4.99993
v 12.29833 0.065281 4.989481
v 12.26833 0.124172 4.989481
v 12.26833 0.124172 -4.99993
v 12.22159 0.170908 4.989481
v 12.22159 0.170908 -4.99993
v 12.1627 0.200914 4.989481
v 12.1627 0.200914 -4.99993
v 12.09742 0.211254 4.989481
v 12.09742 0.211254 -4.99993
v 12.03214 0.200914 4.989481
v 12.03214 0.200914 -4.99993
v 11.97325 0.170908 4.989481
v 11.97325 0.170908 -4.99993
v 11.92651 0.124172 4.989481
v 11.92651 0.124172 -4.99993
v 11.8965 0.065281 4.989481
v 11.8965 0.065281 -4.99993
v 11.88616 0 4.989481
v 11.88616 0 -4.99993
v 11.8965 -0.065281 4.989481
v 11.8965 -0.065281 -4.99993
v 11.92651 -0.124172 4.989481
v 11.92651 -0.124172 -4.99993
v 11.97325 -0.170908 4.989481
v 11.97325 -0.170908 -4.99993
v 12.03214 -0.200914 4.989481
v 12.03214 -0.200914 -4.99993
v 12.09742 -0.211254 4.989481
v 12.09742 -0.211254 -4.99993
v 12.1627 -0.200914 4.989481
v 12.1627 -0.200914 -4.99993
v 12.22159 -0.170908 4.989481
v 12.22159 -0.170908 -4.99993
v 12.26833 -0.124172 4.989481
v 12.26833 -0.124172 -4.99993
v 12.29833 -0.065281 4.989481
v 12.29833 -0.065281 -4.99993
v 12.30867 0 4.989481
v 12.30867 0 -4.99993
v 12.29833 0.065281 4.989481
v 12.29833 0.065281 -4.99993
vt 0.899344 0.088249
vt 0.899344 0.917565
vt 0.901822 0.917565
vt 0.901822 0.088249
vt 0.9043 0.917565
vt 0.9043 0.088249
vt 0.906779 0.917565
vt 0.906779 0.088249
vt 0.909257 0.917565
vt 0.909257 0.088249
vt 0.911735 0.917565
vt 0.911735 0.088249
vt 0.914213 0.917565
vt 0.914213 0.088249
vt 0.916691 0.917565
vt 0.916691 0.088249
vt 0.91917 0.917565
vt 0.91917 0.088249
vt 0.921648 0.917565
vt 0.921648 0.088249
vt 0.924126 0.917565
vt 0.924126 0.088249
vt 0.926604 0.917565
vt 0.926604 0.088249
vt 0.929082 0.917565
vt 0.929082 0.088249
vt 0.931561 0.917565
vt 0.931561 0.088249
vt 0.934039 0.917565
vt 0.934039 0.088249
vt 0.936517 0.917565
vt 0.936517 0.088249
vt 0.938995 0.917565
vt 0.938995 0.088249
vt 0.941474 0.917565
vt 0.941474 0.088249
vt 0.943952 0.917565
vt 0.943952 0.088249
vt 0.94643 0.917565
vt 0.94643 0.088249
vt 0.948908 0.917565
vt 0.948908 0.088249
vn 0.9510569 0.309016 0
vn 0.9510569 0.309016 0
vn 0.8090171 0.5877851 0
vn 0.8090171 0.5877851 0
vn 0.5877851 0.8090171 0
vn 0.5877851 0.8090171 0
vn 0.3090168 0.9510565 0
vn 0.3090168 0.9510565 0
vn 0 1 0
vn 0 1 0
vn -0.3090168 0.9510565 0
vn -0.3090168 0.9510565 0
vn -0.5877851 0.8090171 0
vn -0.5877851 0.8090171 0
vn -0.8090171 0.5877851 0
vn -0.8090171 0.5877851 0
vn -0.9510565 0.3090168 0
vn -0.9510565 0.3090168 0
vn -1 0 0
vn -1 0 0
vn -0.9510565 -0.3090172 0
vn -0.9510565 -0.3090172 0
vn -0.8090171 -0.5877851 0
vn -0.8090171 -0.5877851 0
vn -0.5877851 -0.8090171 0
vn -0.5877851 -0.8090171 0
vn -0.3090168 -0.9510565 0
vn -0.3090168 -0.9510565 0
vn 0 -1 0
vn 0 -1 0
vn 0.3090172 -0.9510565 0
vn 0.3090172 -0.9510565 0
vn 0.5877851 -0.8090171 0
vn 0.5877851 -0.8090171 0
vn 0.8090171 -0.5877851 0
vn 0.8090171 -0.5877851 0
vn 0.9510565 -0.3090168 0
vn 0.9510565 -0.3090168 0
vn 1 0 0
vn 1 0 0
vn 0.9510569 0.309016 0
vn 0.9510569 0.309016 0
g pPlane1_pCylinder3_0
f 3/3/3 2/2/2 1/1/1
f 4/4/4 3/3/3 1/1/1
f 5/5/5 3/3/3 4/4/4
f 6/6/6 5/5/5 4/4/4
f 7/7/7 5/5/5 6/6/6
f 8/8/8 7/7/7 6/6/6
f 9/9/9 7/7/7 8/8/8
f 10/10/10 9/9/9 8/8/8
f 11/11/11 9/9/9 10/10/10
f 12/12/12 11/11/11 10/10/10
f 13/13/13 11/11/11 12/12/12
f 14/14/14 13/13/13 12/12/12
f 15/15/15 13/13/13 14/14/14
f 16/16/16 15/15/15 14/14/14
f 17/17/17 15/15/15 16/16/16
f 18/18/18 17/17/17 16/16/16
f 19/19/19 17/17/17 18/18/18
f 20/20/20 19/19/19 18/18/18
f 21/21/21 19/19/19 20/20/20
f 22/22/22 21/21/21 20/20/20
f 23/23/23 21/21/21 22/22/22
f 24/24/24 23/23/23 22/22/22
f 25/25/25 23/23/23 24/24/24
f 26/26/26 25/25/25 24/24/24
f 27/27/27 25/25/25 26/26/26
f 28/28/28 27/27/27 26/26/26
f 29/29/29 27/27/27 28/28/28
f 30/30/30 29/29/29 28/28/28
f 31/31/31 29/29/29 30/30/30
f 32/32/32 31/31/31 30/30/30
f 33/33/33 31/31/31 32/32/32
f 34/34/34 33/33/33 32/32/32
f 35/35/35 33/33/33 34/34/34
f 36/36/36 35/35/35 34/34/34
f 37/37/37 35/35/35 36/36/36
f 38/38/38 37/37/37 36/36/36
f 39/39/39 37/37/37 38/38/38
f 40/40/40 39/39/39 38/38/38
f 41/41/41 39/39/39 40/40/40
f 42/42/42 41/41/41 40/40/40
